<svg xmlns="http://www.w3.org/2000/svg" viewBox="0 0 32 32" width="32" height="32" shape-rendering="crispEdges">
  <!-- Body -->
  <rect x="8" y="12" width="16" height="12" fill="#F5C842"/>
  <!-- Head -->
  <rect x="11" y="6" width="10" height="9" fill="#F5C842"/>
  <!-- Comb -->
  <rect x="13" y="3" width="3" height="3" fill="#E03030"/>
  <rect x="16" y="4" width="2" height="2" fill="#E03030"/>
  <rect x="11" y="4" width="2" height="2" fill="#E03030"/>
  <!-- Beak -->
  <rect x="20" y="9" width="4" height="3" fill="#E07820"/>
  <!-- Eye -->
  <rect x="17" y="8" width="2" height="2" fill="#1A1A1A"/>
  <!-- Wing -->
  <rect x="9" y="14" width="5" height="7" fill="#D4A830"/>
  <!-- Tail feathers -->
  <rect x="5" y="11" width="4" height="5" fill="#D4A830"/>
  <rect x="4" y="13" width="3" height="3" fill="#D4A830"/>
  <!-- Legs -->
  <rect x="12" y="24" width="3" height="5" fill="#E07820"/>
  <rect x="17" y="24" width="3" height="5" fill="#E07820"/>
  <!-- Feet -->
  <rect x="10" y="28" width="3" height="2" fill="#E07820"/>
  <rect x="13" y="29" width="2" height="1" fill="#E07820"/>
  <rect x="17" y="28" width="3" height="2" fill="#E07820"/>
  <rect x="20" y="29" width="2" height="1" fill="#E07820"/>
</svg>
