<svg width="120" height="40" xmlns="http://www.w3.org/2000/svg">
  <!-- Discord-branded button: blurple rounded rect + wordmark -->
  <rect x="1" y="1" width="118" height="38" rx="8" ry="8" fill="#5865F2"/>
  <!-- Simplified Discord logo mark (controller silhouette) -->
  <g transform="translate(8, 4) scale(0.52)">
    <path fill="white" d="M40.7 8.6A39.6 39.6 0 0 0 30.7.4a27.5 27.5 0 0 0-1.2 2.5 36.6 36.6 0 0 0-10.9 0A27.5 27.5 0 0 0 17.3.4 39.6 39.6 0 0 0 7.3 8.6C1 18.6-1 28.5.3 38.2a39.7 39.7 0 0 0 12 6.1 30 30 0 0 0 2.6-4.2 25.9 25.9 0 0 1-4.1-1.9l1-0.8a28.5 28.5 0 0 0 24.3 0l1 0.8a25.9 25.9 0 0 1-4 1.9 30 30 0 0 0 2.5 4.2 39.6 39.6 0 0 0 12.1-6.1C49 27.1 46.7 17.2 40.7 8.6zM16 31.6c-2.4 0-4.3-2.2-4.3-4.8s1.9-4.8 4.3-4.8 4.4 2.2 4.3 4.8c0 2.6-1.9 4.8-4.3 4.8zm16 0c-2.4 0-4.3-2.2-4.3-4.8s1.9-4.8 4.3-4.8 4.4 2.2 4.3 4.8c0 2.6-1.9 4.8-4.3 4.8z"/>
  </g>
  <!-- "Discord" wordmark -->
  <text x="40" y="26" font-family="Arial, sans-serif" font-size="16" font-weight="bold" fill="white" letter-spacing="0.5">Discord</text>
</svg>
